<svg xmlns="http://www.w3.org/2000/svg" width="24" height="24" viewBox="0 0 24 24">
  <defs>
    <style>
      .cls-1 {
        fill: #fff;
        fill-rule: evenodd;
      }
    </style>
  </defs>
  <path id="_" data-name="*" class="cls-1" d="M15.939,23.337l1.294-.534-3.754-8.562,6.5,6.733,0.987-.987-6.828-6.539L22.8,17.235l0.566-1.3-8.818-3.415L24,12.687V11.294l-9.449.194,8.786-3.448L22.8,6.763l-8.656,3.8,6.828-6.556-0.987-1-6.5,6.766,3.754-8.579-1.294-.566L12.492,9.4,12.687,0H11.3l0.178,9.4L8.059,0.66l-1.295.534L10.5,9.805l-6.488-6.8-1,1,6.763,6.524L1.2,6.763,0.632,8.041l8.786,3.448L0,11.294v1.392l9.417-.162L0.664,15.94l0.534,1.3L9.774,13.48,3.011,19.987l1,0.987L10.5,14.209,6.764,22.8l1.295,0.566,3.414-8.789L11.3,24h1.392L12.492,14.58Z"/>
</svg>
