<svg xmlns="http://www.w3.org/2000/svg" width="58" height="58" viewBox="0 0 58 58">
  <defs>
    <style>
      .cls-1 {
        fill-rule: evenodd;
      }
    </style>
  </defs>
  <path id="_" data-name="" class="cls-1" d="M18.9,42.667a5.975,5.975,0,0,1-6,6,6.01,6.01,0,0,1-4.25-10.25,5.786,5.786,0,0,1,4.25-1.75A5.975,5.975,0,0,1,18.9,42.667Zm-14,0a7.682,7.682,0,0,0,2.375,5.625A7.681,7.681,0,0,0,12.9,50.667a7.688,7.688,0,0,0,5.625-2.375,7.849,7.849,0,0,0,0-11.25A7.7,7.7,0,0,0,12.9,34.667a7.689,7.689,0,0,0-5.625,2.375A7.688,7.688,0,0,0,4.9,42.667Zm47-7.062a9.531,9.531,0,0,1,3,7.063,10.029,10.029,0,0,1-10,10h-32A9.625,9.625,0,0,1,5.84,49.729a9.959,9.959,0,0,1,0-14.125A9.632,9.632,0,0,1,12.9,32.667H44.778A9.842,9.842,0,0,1,51.9,35.6Zm-39-4.937a11.574,11.574,0,0,0-8.5,3.5,12.071,12.071,0,0,0,0,17,11.574,11.574,0,0,0,8.5,3.5h32a11.95,11.95,0,0,0,12-12,11.95,11.95,0,0,0-12-12h-32Zm38-16a6,6,0,1,1-12,0A6,6,0,1,1,50.9,14.667Zm-14,0a7.682,7.682,0,0,0,2.375,5.625,7.849,7.849,0,0,0,11.25,0,7.849,7.849,0,0,0,0-11.25,7.849,7.849,0,0,0-11.25,0A7.688,7.688,0,0,0,36.9,14.667Zm8-10A9.635,9.635,0,0,1,51.965,7.6,9.636,9.636,0,0,1,54.9,14.667a9.633,9.633,0,0,1-2.937,7.062A9.628,9.628,0,0,1,44.9,24.667h-32A9.625,9.625,0,0,1,5.84,21.729,9.625,9.625,0,0,1,2.9,14.667,9.531,9.531,0,0,1,5.9,7.6a9.842,9.842,0,0,1,7.125-2.937H44.9ZM4.4,6.167a11.573,11.573,0,0,0-3.5,8.5,11.567,11.567,0,0,0,3.5,8.5,11.567,11.567,0,0,0,8.5,3.5h32a11.573,11.573,0,0,0,8.5-3.5,11.574,11.574,0,0,0,3.5-8.5,11.581,11.581,0,0,0-3.5-8.5,11.581,11.581,0,0,0-8.5-3.5h-32A11.574,11.574,0,0,0,4.4,6.167Z"/>
</svg>
