<svg xmlns="http://www.w3.org/2000/svg" width="58" height="58" viewBox="0 0 58 58">
  <defs>
    <style>
      .cls-1 {
        fill-rule: evenodd;
      }
    </style>
  </defs>
  <path id="_" data-name="ï¼" class="cls-1" d="M17.028,28.667a11.95,11.95,0,0,0,12,12,11.95,11.95,0,0,0,12-12,11.95,11.95,0,0,0-12-12A11.95,11.95,0,0,0,17.028,28.667Zm2,0a10.029,10.029,0,0,1,10-10,10.029,10.029,0,0,1,10,10,10.029,10.029,0,0,1-10,10A10.029,10.029,0,0,1,19.028,28.667Zm5.25-19.5a7.85,7.85,0,0,0,4.625,1.5,7.5,7.5,0,0,0,4.625-1.5,8.466,8.466,0,0,0,2.125-2.125,35.72,35.72,0,0,1,3.75,1.5,8.749,8.749,0,0,0,0,3,7.669,7.669,0,0,0,2.25,4.375,7.827,7.827,0,0,0,5.75,2.375,7.408,7.408,0,0,0,1.625-.125,35.734,35.734,0,0,1,1.5,3.75A8.464,8.464,0,0,0,48.4,24.042a7.5,7.5,0,0,0-1.5,4.625,7.851,7.851,0,0,0,1.5,4.625,8.432,8.432,0,0,0,2.125,2.125,35.734,35.734,0,0,1-1.5,3.75,7.531,7.531,0,0,0-1.625-.125,7.834,7.834,0,0,0-5.75,2.375,7.674,7.674,0,0,0-2.25,4.375,8.746,8.746,0,0,0,0,3,34.884,34.884,0,0,1-3.75,1.5,8.5,8.5,0,0,0-2.125-2.125,7.5,7.5,0,0,0-4.625-1.5,7.85,7.85,0,0,0-4.625,1.5,8.465,8.465,0,0,0-2.125,2.125,34.884,34.884,0,0,1-3.75-1.5,8.85,8.85,0,0,0,0-3,7.674,7.674,0,0,0-2.25-4.375,7.838,7.838,0,0,0-5.75-2.375,7.518,7.518,0,0,0-1.625.125,34.892,34.892,0,0,1-1.5-3.75A8.464,8.464,0,0,0,9.4,33.292a7.85,7.85,0,0,0,1.5-4.625,7.5,7.5,0,0,0-1.5-4.625,8.5,8.5,0,0,0-2.125-2.125,34.892,34.892,0,0,1,1.5-3.75,7.4,7.4,0,0,0,1.625.125,7.83,7.83,0,0,0,5.75-2.375,7.669,7.669,0,0,0,2.25-4.375,8.853,8.853,0,0,0,0-3,35.72,35.72,0,0,1,3.75-1.5,8.433,8.433,0,0,0,2.125,2.125h0Zm4.625-.5a5.659,5.659,0,0,1-5.75-4,23.873,23.873,0,0,0-7.125,3,5.659,5.659,0,0,1-1.25,6.875,5.933,5.933,0,0,1-4.375,1.75,5.555,5.555,0,0,1-2.5-.5,23.816,23.816,0,0,0-3,7.125,5.662,5.662,0,0,1,4,5.75,5.661,5.661,0,0,1-4,5.75,23.775,23.775,0,0,0,3,7.125,5.581,5.581,0,0,1,2.5-.5,5.941,5.941,0,0,1,4.375,1.75,5.66,5.66,0,0,1,1.25,6.875,23.771,23.771,0,0,0,7.125,3,5.661,5.661,0,0,1,5.75-4,5.662,5.662,0,0,1,5.75,4,23.815,23.815,0,0,0,7.125-3,5.657,5.657,0,0,1,1.25-6.875,5.937,5.937,0,0,1,4.375-1.75,5.586,5.586,0,0,1,2.5.5,23.876,23.876,0,0,0,3-7.125,5.658,5.658,0,0,1-4-5.75,5.66,5.66,0,0,1,4-5.75,23.918,23.918,0,0,0-3-7.125,5.561,5.561,0,0,1-2.5.5,5.93,5.93,0,0,1-4.375-1.75,5.657,5.657,0,0,1-1.25-6.875,23.917,23.917,0,0,0-7.125-3A5.66,5.66,0,0,1,28.9,8.667Z"/>
</svg>
