<svg xmlns="http://www.w3.org/2000/svg" width="58" height="58" viewBox="0 0 58 58">
  <defs>
    <style>
      .cls-1 {
        fill-rule: evenodd;
      }
    </style>
  </defs>
  <path id="_" data-name="ï•" class="cls-1" d="M16.653,21.667l32,32,4.25-4.25-32-32Zm8.25,2.5,25.125,25.25-1.375,1.375L23.528,25.667Zm-3-12.5v-5h-2v5h2Zm0,25.5v-5h-2v5h2Zm15-14.5v-2h-5v2h5Zm-27,0v-2h-5v2h5ZM9.4,11.917l3.5,3.5,1.5-1.375-3.625-3.625Zm3.5,16.625-3.5,3.5,1.375,1.375,3.625-3.5ZM31.028,10.417L27.4,14.042l1.5,1.375,3.5-3.5Z"/>
</svg>
